<svg xmlns="http://www.w3.org/2000/svg" xmlns:xlink="http://www.w3.org/1999/xlink" width="1080" zoomAndPan="magnify" viewBox="0 0 810 809.999993" height="1080" preserveAspectRatio="xMidYMid meet" version="1.0"><path fill="#ffffff" d="M 404.769531 53.402344 C 209.644531 54.058594 53.691406 212.65625 56.238281 407.695312 C 56.355469 417.492188 56.882812 427.269531 57.824219 437.023438 C 58.765625 446.777344 60.117188 456.476562 61.878906 466.117188 C 63.636719 475.757812 65.800781 485.304688 68.371094 494.765625 C 70.9375 504.222656 73.898438 513.554688 77.253906 522.761719 C 80.609375 531.96875 84.347656 541.019531 88.46875 549.914062 C 92.589844 558.804688 97.078125 567.507812 101.933594 576.019531 C 106.789062 584.535156 111.992188 592.828125 117.550781 600.902344 C 123.105469 608.976562 128.992188 616.800781 135.210938 624.378906 C 136.1875 625.574219 137.070312 626.835938 137.855469 628.164062 C 138.644531 629.492188 139.328125 630.871094 139.910156 632.300781 C 140.492188 633.734375 140.964844 635.199219 141.324219 636.699219 C 141.6875 638.199219 141.9375 639.722656 142.070312 641.257812 C 142.207031 642.796875 142.226562 644.335938 142.128906 645.878906 C 142.03125 647.417969 141.824219 648.945312 141.5 650.453125 C 141.175781 651.964844 140.738281 653.441406 140.195312 654.886719 C 139.648438 656.332031 139 657.726562 138.246094 659.074219 L 108.117188 713.046875 C 99.761719 728.011719 113.375 745.703125 129.984375 741.472656 L 232.03125 715.503906 C 233.796875 715.054688 235.589844 714.761719 237.40625 714.628906 C 239.222656 714.496094 241.039062 714.523438 242.851562 714.707031 C 244.664062 714.894531 246.445312 715.238281 248.195312 715.738281 C 249.949219 716.234375 251.644531 716.882812 253.28125 717.679688 C 264.53125 723.144531 276.042969 727.988281 287.816406 732.210938 C 299.585938 736.433594 311.550781 740.011719 323.710938 742.945312 C 335.867188 745.878906 348.148438 748.152344 360.550781 749.761719 C 372.953125 751.371094 385.40625 752.308594 397.910156 752.578125 C 594.09375 757.011719 755.121094 600.308594 755.734375 404.148438 C 756.339844 210.136719 598.863281 52.746094 404.769531 53.402344 Z M 405.972656 709.585938 C 400.953125 709.585938 395.9375 709.464844 390.925781 709.21875 C 385.914062 708.972656 380.910156 708.601562 375.914062 708.113281 C 370.917969 707.621094 365.941406 707.007812 360.976562 706.269531 C 356.011719 705.535156 351.066406 704.675781 346.144531 703.699219 C 341.222656 702.71875 336.328125 701.621094 331.460938 700.402344 C 326.589844 699.183594 321.753906 697.84375 316.953125 696.386719 C 312.148438 694.933594 307.386719 693.359375 302.660156 691.667969 C 297.933594 689.980469 293.253906 688.175781 288.617188 686.253906 C 283.980469 684.335938 279.394531 682.300781 274.855469 680.15625 C 270.320312 678.011719 265.839844 675.757812 261.410156 673.390625 C 256.984375 671.027344 252.621094 668.554688 248.316406 665.976562 C 244.011719 663.394531 239.773438 660.714844 235.597656 657.925781 C 231.425781 655.140625 227.324219 652.25 223.292969 649.261719 C 219.261719 646.273438 215.304688 643.1875 211.425781 640.003906 C 207.546875 636.824219 203.746094 633.546875 200.027344 630.175781 C 196.308594 626.808594 192.675781 623.351562 189.128906 619.800781 C 185.578125 616.253906 182.121094 612.621094 178.75 608.90625 C 175.378906 605.1875 172.101562 601.390625 168.917969 597.511719 C 165.734375 593.632812 162.648438 589.679688 159.65625 585.648438 C 156.667969 581.621094 153.777344 577.519531 150.988281 573.347656 C 148.203125 569.175781 145.515625 564.9375 142.9375 560.636719 C 140.355469 556.332031 137.882812 551.96875 135.519531 547.542969 C 133.152344 543.121094 130.894531 538.640625 128.75 534.105469 C 126.605469 529.570312 124.570312 524.984375 122.652344 520.347656 C 120.730469 515.714844 118.925781 511.035156 117.234375 506.308594 C 115.542969 501.585938 113.96875 496.824219 112.511719 492.023438 C 111.054688 487.222656 109.71875 482.386719 108.496094 477.523438 C 107.277344 472.65625 106.179688 467.761719 105.199219 462.839844 C 104.21875 457.921875 103.363281 452.976562 102.625 448.015625 C 101.890625 443.054688 101.277344 438.074219 100.785156 433.082031 C 100.292969 428.089844 99.921875 423.085938 99.675781 418.078125 C 99.429688 413.066406 99.308594 408.050781 99.308594 403.035156 C 99.308594 233.734375 236.609375 96.480469 405.972656 96.480469 C 574.683594 96.480469 711.570312 232.667969 712.632812 401.0625 C 713.699219 570.027344 575.003906 709.585938 405.972656 709.585938 Z M 405.972656 709.585938 " fill-opacity="1" fill-rule="nonzero"/><path fill="#ffffff" d="M 351.164062 253.996094 L 351.304688 254.277344 L 369.59375 290.539062 C 370.085938 291.515625 370.539062 292.507812 370.949219 293.515625 C 371.359375 294.527344 371.730469 295.550781 372.058594 296.589844 C 372.386719 297.628906 372.671875 298.679688 372.917969 299.742188 C 373.160156 300.804688 373.359375 301.878906 373.519531 302.957031 C 373.675781 304.035156 373.789062 305.117188 373.859375 306.207031 C 373.929688 307.292969 373.957031 308.382812 373.9375 309.472656 C 373.921875 310.5625 373.859375 311.652344 373.753906 312.738281 C 373.648438 313.820312 373.5 314.902344 373.308594 315.972656 C 373.117188 317.046875 372.882812 318.109375 372.605469 319.164062 C 372.324219 320.21875 372.007812 321.261719 371.644531 322.289062 C 371.28125 323.316406 370.878906 324.332031 370.4375 325.328125 C 369.992188 326.324219 369.511719 327.300781 368.988281 328.257812 C 368.464844 329.214844 367.90625 330.148438 367.308594 331.0625 C 366.710938 331.972656 366.078125 332.859375 365.410156 333.722656 C 364.742188 334.582031 364.039062 335.414062 363.304688 336.21875 C 362.566406 337.023438 361.800781 337.796875 361.003906 338.542969 C 360.207031 339.277344 359.441406 340.046875 358.710938 340.84375 C 357.976562 341.644531 357.277344 342.46875 356.609375 343.324219 C 355.941406 344.179688 355.3125 345.058594 354.714844 345.964844 C 354.121094 346.871094 353.5625 347.796875 353.039062 348.75 C 352.515625 349.699219 352.035156 350.667969 351.589844 351.65625 C 351.148438 352.644531 350.742188 353.652344 350.378906 354.671875 C 350.015625 355.695312 349.695312 356.726562 349.414062 357.773438 C 349.132812 358.820312 348.898438 359.878906 348.703125 360.945312 C 348.507812 362.011719 348.355469 363.082031 348.246094 364.160156 C 348.136719 365.238281 348.070312 366.320312 348.046875 367.40625 C 348.023438 368.488281 348.046875 369.570312 348.109375 370.652344 C 348.175781 371.734375 348.28125 372.8125 348.433594 373.886719 C 348.582031 374.960938 348.777344 376.023438 349.011719 377.082031 C 349.25 378.140625 349.527344 379.1875 349.847656 380.222656 C 350.167969 381.257812 350.53125 382.277344 350.933594 383.285156 C 351.335938 384.292969 351.777344 385.28125 352.257812 386.25 C 363.238281 408.292969 382.261719 438.671875 411.289062 460.59375 C 412.910156 461.820312 414.609375 462.921875 416.390625 463.894531 C 418.171875 464.867188 420.019531 465.703125 421.925781 466.402344 C 423.832031 467.097656 425.78125 467.652344 427.773438 468.058594 C 429.761719 468.464844 431.773438 468.71875 433.800781 468.824219 C 435.828125 468.933594 437.851562 468.886719 439.875 468.691406 C 441.894531 468.492188 443.890625 468.148438 445.863281 467.652344 C 447.832031 467.15625 449.753906 466.519531 451.628906 465.734375 C 453.503906 464.953125 455.308594 464.035156 457.046875 462.984375 L 468.824219 455.816406 C 471.464844 454.210938 474.253906 452.921875 477.191406 451.953125 C 480.125 450.980469 483.132812 450.355469 486.210938 450.070312 C 489.292969 449.789062 492.363281 449.855469 495.425781 450.273438 C 498.492188 450.691406 501.46875 451.445312 504.359375 452.542969 L 551.179688 470.339844 C 552.421875 470.8125 553.640625 471.34375 554.832031 471.9375 C 556.023438 472.527344 557.179688 473.179688 558.308594 473.882812 C 559.4375 474.589844 560.527344 475.351562 561.578125 476.164062 C 562.632812 476.976562 563.640625 477.839844 564.609375 478.75 C 565.578125 479.664062 566.5 480.621094 567.371094 481.625 C 568.246094 482.625 569.070312 483.667969 569.839844 484.753906 C 570.609375 485.835938 571.328125 486.957031 571.988281 488.109375 C 572.648438 489.261719 573.253906 490.445312 573.796875 491.660156 C 574.34375 492.871094 574.828125 494.109375 575.25 495.371094 C 575.675781 496.632812 576.035156 497.910156 576.332031 499.207031 C 576.628906 500.5 576.863281 501.808594 577.03125 503.128906 C 577.203125 504.449219 577.304688 505.773438 577.34375 507.101562 C 577.382812 508.429688 577.359375 509.757812 577.265625 511.085938 C 577.175781 512.410156 577.019531 513.730469 576.796875 515.042969 C 576.578125 516.351562 576.292969 517.652344 575.945312 518.933594 C 575.59375 520.21875 575.183594 521.480469 574.710938 522.722656 C 574.164062 524.152344 573.539062 525.546875 572.839844 526.910156 L 559.867188 552.046875 C 559.34375 553.0625 558.777344 554.050781 558.167969 555.019531 C 557.558594 555.984375 556.914062 556.925781 556.226562 557.835938 C 555.539062 558.75 554.8125 559.632812 554.050781 560.484375 C 553.292969 561.335938 552.496094 562.152344 551.664062 562.9375 C 550.835938 563.722656 549.972656 564.46875 549.078125 565.179688 C 548.183594 565.890625 547.261719 566.566406 546.3125 567.199219 C 545.363281 567.832031 544.386719 568.425781 543.386719 568.976562 C 542.386719 569.527344 541.363281 570.035156 540.320312 570.503906 C 539.277344 570.96875 538.21875 571.390625 537.136719 571.765625 C 536.058594 572.140625 534.96875 572.472656 533.859375 572.753906 C 532.753906 573.039062 531.636719 573.277344 530.511719 573.464844 C 529.382812 573.65625 528.25 573.796875 527.113281 573.890625 C 525.972656 573.988281 524.835938 574.03125 523.691406 574.03125 C 522.550781 574.03125 521.410156 573.980469 520.269531 573.882812 C 519.132812 573.785156 518 573.636719 516.875 573.445312 C 515.75 573.253906 514.632812 573.011719 513.527344 572.722656 C 439.996094 553.707031 264.746094 487.601562 250.625 287.710938 C 250.484375 285.738281 250.492188 283.765625 250.640625 281.792969 C 250.789062 279.820312 251.078125 277.867188 251.511719 275.9375 C 251.945312 274.007812 252.515625 272.121094 253.226562 270.273438 C 253.9375 268.429688 254.777344 266.644531 255.746094 264.917969 C 256.714844 263.195312 257.808594 261.550781 259.019531 259.984375 C 260.226562 258.421875 261.546875 256.953125 262.972656 255.582031 C 264.398438 254.210938 265.914062 252.949219 267.523438 251.796875 C 269.132812 250.644531 270.816406 249.617188 272.578125 248.714844 L 296.457031 236.453125 C 297.640625 235.84375 298.851562 235.292969 300.085938 234.804688 C 301.324219 234.316406 302.582031 233.886719 303.863281 233.523438 C 305.140625 233.15625 306.433594 232.855469 307.746094 232.617188 C 309.054688 232.378906 310.371094 232.203125 311.695312 232.09375 C 313.023438 231.984375 314.351562 231.941406 315.683594 231.960938 C 317.011719 231.984375 318.339844 232.070312 319.660156 232.222656 C 320.980469 232.371094 322.292969 232.589844 323.59375 232.867188 C 324.894531 233.148438 326.179688 233.492188 327.445312 233.898438 C 328.710938 234.304688 329.957031 234.773438 331.175781 235.300781 C 332.398438 235.828125 333.589844 236.417969 334.753906 237.0625 C 335.917969 237.707031 337.046875 238.410156 338.140625 239.164062 C 339.234375 239.921875 340.289062 240.730469 341.304688 241.589844 C 342.320312 242.449219 343.289062 243.359375 344.214844 244.3125 C 345.140625 245.269531 346.019531 246.265625 346.84375 247.308594 C 347.671875 248.351562 348.445312 249.429688 349.167969 250.546875 C 349.890625 251.664062 350.554688 252.816406 351.164062 253.996094 Z M 351.164062 253.996094 " fill-opacity="1" fill-rule="nonzero"/></svg>